<svg xmlns="http://www.w3.org/2000/svg" xmlns:xlink="http://www.w3.org/1999/xlink" width="148" zoomAndPan="magnify" viewBox="0 0 110.88 30.000001" height="40" preserveAspectRatio="xMidYMid meet" version="1.0"><defs><clipPath id="2d821d71c2"><path d="M 2.304688 8.5 L 108.273438 8.5 L 108.273438 20 L 2.304688 20 Z M 2.304688 8.5 " clip-rule="nonzero"/></clipPath></defs><g clip-path="url(#2d821d71c2)"><path fill="#ffffff" d="M 12.679688 14.132812 C 12.679688 14.980469 12.574219 15.746094 12.367188 16.429688 C 12.160156 17.121094 11.84375 17.710938 11.417969 18.207031 C 11 18.707031 10.460938 19.089844 9.800781 19.355469 C 9.144531 19.621094 8.375 19.753906 7.492188 19.753906 C 6.605469 19.753906 5.835938 19.617188 5.183594 19.347656 C 4.523438 19.078125 3.984375 18.695312 3.566406 18.199219 C 3.140625 17.710938 2.824219 17.117188 2.617188 16.421875 C 2.410156 15.734375 2.304688 14.964844 2.304688 14.121094 C 2.304688 12.992188 2.488281 12.011719 2.863281 11.175781 C 3.234375 10.339844 3.804688 9.691406 4.574219 9.234375 C 5.339844 8.769531 6.316406 8.535156 7.503906 8.535156 C 8.6875 8.535156 9.660156 8.769531 10.421875 9.234375 C 11.183594 9.691406 11.75 10.34375 12.121094 11.183594 C 12.492188 12.023438 12.679688 13.007812 12.679688 14.132812 Z M 4.730469 14.132812 C 4.730469 14.898438 4.828125 15.554688 5.015625 16.105469 C 5.210938 16.652344 5.511719 17.074219 5.917969 17.371094 C 6.328125 17.664062 6.851562 17.808594 7.492188 17.808594 C 8.152344 17.808594 8.679688 17.664062 9.082031 17.371094 C 9.484375 17.074219 9.78125 16.652344 9.972656 16.105469 C 10.160156 15.554688 10.25 14.898438 10.25 14.132812 C 10.25 12.984375 10.039062 12.085938 9.613281 11.433594 C 9.183594 10.785156 8.480469 10.460938 7.503906 10.460938 C 6.855469 10.460938 6.328125 10.609375 5.917969 10.90625 C 5.511719 11.195312 5.210938 11.617188 5.015625 12.164062 C 4.828125 12.71875 4.730469 13.375 4.730469 14.132812 Z M 19.40625 11.117188 C 19.519531 11.117188 19.652344 11.121094 19.804688 11.128906 C 19.957031 11.140625 20.078125 11.152344 20.167969 11.175781 L 20.003906 13.3125 C 19.929688 13.289062 19.828125 13.273438 19.691406 13.257812 C 19.554688 13.242188 19.433594 13.234375 19.332031 13.234375 C 19.035156 13.234375 18.75 13.273438 18.476562 13.351562 C 18.203125 13.425781 17.953125 13.546875 17.734375 13.710938 C 17.515625 13.875 17.34375 14.089844 17.214844 14.355469 C 17.09375 14.625 17.03125 14.957031 17.03125 15.355469 L 17.03125 19.601562 L 14.753906 19.601562 L 14.753906 11.269531 L 16.480469 11.269531 L 16.8125 12.667969 L 16.917969 12.667969 C 17.082031 12.386719 17.285156 12.128906 17.527344 11.894531 C 17.777344 11.660156 18.058594 11.46875 18.378906 11.328125 C 18.695312 11.1875 19.039062 11.117188 19.40625 11.117188 Z M 27.054688 11.269531 L 29.320312 11.269531 L 29.320312 19.601562 L 27.585938 19.601562 L 27.277344 18.53125 L 27.160156 18.53125 C 26.988281 18.816406 26.765625 19.046875 26.496094 19.222656 C 26.226562 19.398438 25.929688 19.53125 25.601562 19.621094 C 25.273438 19.707031 24.9375 19.753906 24.59375 19.753906 C 24.003906 19.753906 23.488281 19.644531 23.039062 19.429688 C 22.59375 19.214844 22.246094 18.886719 22 18.441406 C 21.753906 17.992188 21.632812 17.410156 21.632812 16.695312 L 21.632812 11.269531 L 23.910156 11.269531 L 23.910156 16.132812 C 23.910156 16.722656 24.015625 17.171875 24.226562 17.476562 C 24.441406 17.78125 24.78125 17.9375 25.25 17.9375 C 25.71875 17.9375 26.082031 17.828125 26.34375 17.617188 C 26.601562 17.402344 26.78125 17.089844 26.886719 16.683594 C 27 16.273438 27.054688 15.777344 27.054688 15.1875 Z M 41.480469 11.117188 C 42.425781 11.117188 43.144531 11.359375 43.628906 11.839844 C 44.113281 12.320312 44.351562 13.097656 44.351562 14.167969 L 44.351562 19.601562 L 42.078125 19.601562 L 42.078125 14.730469 C 42.078125 14.128906 41.976562 13.679688 41.773438 13.378906 C 41.570312 13.078125 41.253906 12.925781 40.832031 12.925781 C 40.230469 12.925781 39.800781 13.140625 39.542969 13.570312 C 39.292969 14 39.164062 14.613281 39.164062 15.414062 L 39.164062 19.601562 L 36.890625 19.601562 L 36.890625 14.730469 C 36.890625 14.332031 36.84375 14.003906 36.75 13.738281 C 36.664062 13.476562 36.527344 13.273438 36.339844 13.132812 C 36.160156 12.996094 35.925781 12.925781 35.644531 12.925781 C 35.222656 12.925781 34.890625 13.035156 34.648438 13.253906 C 34.40625 13.464844 34.234375 13.773438 34.132812 14.179688 C 34.03125 14.589844 33.980469 15.085938 33.980469 15.671875 L 33.980469 19.601562 L 31.703125 19.601562 L 31.703125 11.269531 L 33.441406 11.269531 L 33.746094 12.335938 L 33.871094 12.335938 C 34.046875 12.050781 34.257812 11.816406 34.507812 11.640625 C 34.765625 11.464844 35.046875 11.332031 35.359375 11.242188 C 35.667969 11.160156 35.980469 11.117188 36.292969 11.117188 C 36.902344 11.117188 37.421875 11.214844 37.851562 11.414062 C 38.28125 11.609375 38.605469 11.917969 38.828125 12.335938 L 39.027344 12.335938 C 39.28125 11.90625 39.636719 11.597656 40.089844 11.402344 C 40.539062 11.210938 41.003906 11.117188 41.480469 11.117188 Z M 50.105469 11.097656 C 51.222656 11.097656 52.078125 11.339844 52.671875 11.828125 C 53.269531 12.308594 53.566406 13.046875 53.566406 14.042969 L 53.566406 19.601562 L 51.980469 19.601562 L 51.535156 18.464844 L 51.476562 18.464844 C 51.242188 18.761719 51 19.007812 50.753906 19.203125 C 50.503906 19.394531 50.21875 19.53125 49.898438 19.621094 C 49.574219 19.707031 49.183594 19.753906 48.71875 19.753906 C 48.226562 19.753906 47.785156 19.65625 47.398438 19.46875 C 47.003906 19.277344 46.695312 18.988281 46.46875 18.597656 C 46.25 18.207031 46.136719 17.710938 46.136719 17.113281 C 46.136719 16.230469 46.445312 15.574219 47.066406 15.148438 C 47.691406 14.730469 48.621094 14.496094 49.859375 14.453125 L 51.3125 14.414062 L 51.3125 14.042969 C 51.3125 13.605469 51.195312 13.285156 50.964844 13.078125 C 50.738281 12.875 50.417969 12.773438 50.011719 12.773438 C 49.605469 12.773438 49.207031 12.835938 48.824219 12.953125 C 48.433594 13.070312 48.046875 13.210938 47.664062 13.386719 L 46.914062 11.847656 C 47.359375 11.613281 47.855469 11.429688 48.398438 11.296875 C 48.945312 11.164062 49.511719 11.097656 50.105469 11.097656 Z M 51.3125 15.738281 L 50.421875 15.765625 C 49.691406 15.789062 49.183594 15.921875 48.898438 16.164062 C 48.613281 16.40625 48.472656 16.726562 48.472656 17.125 C 48.472656 17.472656 48.574219 17.714844 48.777344 17.863281 C 48.980469 18.011719 49.242188 18.089844 49.566406 18.089844 C 50.058594 18.089844 50.472656 17.941406 50.808594 17.652344 C 51.144531 17.363281 51.3125 16.953125 51.3125 16.421875 Z M 66.324219 17.691406 L 66.324219 19.601562 L 60.046875 19.601562 L 60.046875 8.703125 L 66.324219 8.703125 L 66.324219 10.597656 L 62.355469 10.597656 L 62.355469 12.992188 L 66.042969 12.992188 L 66.042969 14.882812 L 62.355469 14.882812 L 62.355469 17.691406 Z M 72.730469 19.601562 L 70.394531 19.601562 L 67.21875 11.269531 L 69.597656 11.269531 L 71.203125 16.011719 C 71.265625 16.191406 71.320312 16.386719 71.363281 16.589844 C 71.410156 16.792969 71.445312 16.992188 71.46875 17.1875 C 71.496094 17.378906 71.515625 17.558594 71.523438 17.722656 L 71.582031 17.722656 C 71.597656 17.550781 71.617188 17.367188 71.644531 17.171875 C 71.671875 16.976562 71.714844 16.78125 71.761719 16.582031 C 71.804688 16.382812 71.859375 16.191406 71.921875 16.011719 L 73.519531 11.269531 L 75.902344 11.269531 Z M 80.523438 11.117188 C 81.296875 11.117188 81.960938 11.261719 82.515625 11.554688 C 83.070312 11.851562 83.503906 12.28125 83.808594 12.839844 C 84.113281 13.398438 84.265625 14.082031 84.265625 14.898438 L 84.265625 16 L 78.894531 16 C 78.914062 16.640625 79.105469 17.140625 79.464844 17.503906 C 79.824219 17.871094 80.328125 18.054688 80.96875 18.054688 C 81.507812 18.054688 81.996094 18.003906 82.433594 17.894531 C 82.867188 17.789062 83.320312 17.625 83.789062 17.398438 L 83.789062 19.15625 C 83.382812 19.359375 82.953125 19.511719 82.5 19.605469 C 82.050781 19.703125 81.503906 19.753906 80.863281 19.753906 C 80.027344 19.753906 79.289062 19.597656 78.648438 19.28125 C 78.007812 18.972656 77.503906 18.503906 77.136719 17.875 C 76.773438 17.242188 76.589844 16.449219 76.589844 15.496094 C 76.589844 14.515625 76.753906 13.707031 77.082031 13.058594 C 77.414062 12.414062 77.875 11.929688 78.46875 11.601562 C 79.054688 11.277344 79.742188 11.117188 80.523438 11.117188 Z M 80.539062 12.734375 C 80.101562 12.734375 79.738281 12.875 79.449219 13.160156 C 79.160156 13.441406 78.988281 13.886719 78.9375 14.484375 L 82.128906 14.484375 C 82.128906 14.148438 82.070312 13.847656 81.949219 13.585938 C 81.835938 13.324219 81.660156 13.117188 81.425781 12.960938 C 81.191406 12.808594 80.894531 12.734375 80.539062 12.734375 Z M 90.839844 11.117188 C 91.734375 11.117188 92.449219 11.359375 92.988281 11.839844 C 93.527344 12.320312 93.796875 13.097656 93.796875 14.167969 L 93.796875 19.601562 L 91.523438 19.601562 L 91.523438 14.730469 C 91.523438 14.128906 91.417969 13.679688 91.203125 13.378906 C 90.992188 13.078125 90.652344 12.925781 90.183594 12.925781 C 89.492188 12.925781 89.019531 13.164062 88.761719 13.636719 C 88.511719 14.109375 88.386719 14.789062 88.386719 15.671875 L 88.386719 19.601562 L 86.109375 19.601562 L 86.109375 11.269531 L 87.847656 11.269531 L 88.152344 12.335938 L 88.273438 12.335938 C 88.457031 12.050781 88.683594 11.816406 88.949219 11.640625 C 89.214844 11.464844 89.507812 11.332031 89.832031 11.242188 C 90.160156 11.160156 90.496094 11.117188 90.839844 11.117188 Z M 99.640625 17.9375 C 99.894531 17.9375 100.136719 17.910156 100.371094 17.855469 C 100.605469 17.808594 100.839844 17.746094 101.074219 17.675781 L 101.074219 19.367188 C 100.832031 19.46875 100.527344 19.558594 100.164062 19.632812 C 99.808594 19.714844 99.414062 19.753906 98.984375 19.753906 C 98.484375 19.753906 98.042969 19.671875 97.652344 19.507812 C 97.257812 19.34375 96.949219 19.0625 96.722656 18.660156 C 96.492188 18.257812 96.378906 17.699219 96.378906 16.988281 L 96.378906 12.972656 L 95.296875 12.972656 L 95.296875 12.011719 L 96.542969 11.25 L 97.199219 9.496094 L 98.652344 9.496094 L 98.652344 11.269531 L 100.980469 11.269531 L 100.980469 12.972656 L 98.652344 12.972656 L 98.652344 16.988281 C 98.652344 17.304688 98.746094 17.542969 98.925781 17.695312 C 99.105469 17.855469 99.34375 17.9375 99.640625 17.9375 Z M 108.5625 17.125 C 108.5625 17.683594 108.433594 18.160156 108.171875 18.550781 C 107.90625 18.945312 107.507812 19.246094 106.976562 19.449219 C 106.453125 19.652344 105.796875 19.753906 105.015625 19.753906 C 104.4375 19.753906 103.9375 19.714844 103.515625 19.632812 C 103.101562 19.558594 102.683594 19.433594 102.269531 19.261719 L 102.269531 17.386719 C 102.714844 17.589844 103.199219 17.757812 103.714844 17.890625 C 104.230469 18.023438 104.691406 18.089844 105.089844 18.089844 C 105.535156 18.089844 105.851562 18.023438 106.042969 17.890625 C 106.230469 17.757812 106.320312 17.585938 106.320312 17.371094 C 106.320312 17.230469 106.285156 17.101562 106.207031 16.988281 C 106.132812 16.875 105.96875 16.75 105.710938 16.609375 C 105.460938 16.46875 105.0625 16.285156 104.523438 16.058594 C 104.007812 15.832031 103.578125 15.613281 103.242188 15.394531 C 102.90625 15.175781 102.65625 14.910156 102.496094 14.597656 C 102.332031 14.289062 102.25 13.898438 102.25 13.429688 C 102.25 12.664062 102.550781 12.082031 103.152344 11.695312 C 103.753906 11.308594 104.550781 11.117188 105.546875 11.117188 C 106.0625 11.117188 106.554688 11.167969 107.023438 11.269531 C 107.492188 11.371094 107.976562 11.539062 108.476562 11.773438 L 107.789062 13.40625 C 107.378906 13.234375 106.992188 13.085938 106.625 12.96875 C 106.265625 12.851562 105.894531 12.792969 105.511719 12.792969 C 105.179688 12.792969 104.929688 12.839844 104.761719 12.925781 C 104.59375 13.019531 104.511719 13.160156 104.511719 13.34375 C 104.511719 13.472656 104.554688 13.59375 104.636719 13.703125 C 104.726562 13.808594 104.894531 13.921875 105.140625 14.042969 C 105.386719 14.164062 105.757812 14.328125 106.25 14.53125 C 106.726562 14.726562 107.136719 14.929688 107.484375 15.136719 C 107.828125 15.34375 108.09375 15.601562 108.285156 15.914062 C 108.472656 16.222656 108.5625 16.625 108.5625 17.125 Z M 108.5625 17.125 " fill-opacity="1" fill-rule="nonzero"/></g></svg>