<svg xmlns="http://www.w3.org/2000/svg" xmlns:xlink="http://www.w3.org/1999/xlink" width="220" zoomAndPan="magnify" viewBox="0 0 165 36.000001" height="48" preserveAspectRatio="xMidYMid meet" version="1.0"><defs><g/><clipPath id="b48f570636"><rect x="0" width="152" y="0" height="22"/></clipPath></defs><g transform="matrix(1, 0, 0, 1, 8, 7)"><g clip-path="url(#b48f570636)"><g fill="#ffffff" fill-opacity="1"><g transform="translate(0.266308, 16.296896)"><g><path d="M 5.484375 0.140625 C 4.554688 0.140625 3.738281 -0.046875 3.03125 -0.421875 C 2.332031 -0.796875 1.785156 -1.367188 1.390625 -2.140625 C 0.992188 -2.910156 0.796875 -3.875 0.796875 -5.03125 C 0.796875 -6.1875 0.992188 -7.148438 1.390625 -7.921875 C 1.785156 -8.691406 2.332031 -9.265625 3.03125 -9.640625 C 3.738281 -10.015625 4.554688 -10.203125 5.484375 -10.203125 C 6.410156 -10.203125 7.222656 -10.015625 7.921875 -9.640625 C 8.617188 -9.265625 9.164062 -8.691406 9.5625 -7.921875 C 9.96875 -7.148438 10.171875 -6.1875 10.171875 -5.03125 C 10.171875 -3.875 9.96875 -2.910156 9.5625 -2.140625 C 9.164062 -1.367188 8.617188 -0.796875 7.921875 -0.421875 C 7.222656 -0.046875 6.410156 0.140625 5.484375 0.140625 Z M 5.484375 -1.578125 C 6.335938 -1.578125 6.988281 -1.851562 7.4375 -2.40625 C 7.882812 -2.957031 8.109375 -3.832031 8.109375 -5.03125 C 8.109375 -6.226562 7.882812 -7.101562 7.4375 -7.65625 C 6.988281 -8.207031 6.335938 -8.484375 5.484375 -8.484375 C 4.628906 -8.484375 3.972656 -8.207031 3.515625 -7.65625 C 3.066406 -7.101562 2.84375 -6.226562 2.84375 -5.03125 C 2.84375 -3.832031 3.066406 -2.957031 3.515625 -2.40625 C 3.972656 -1.851562 4.628906 -1.578125 5.484375 -1.578125 Z M 5.484375 -1.578125 "/></g></g><g transform="translate(11.232193, 16.296896)"><g><path d="M 1.09375 0 L 1.09375 -7.59375 L 2.953125 -7.59375 L 2.953125 -6.46875 L 3.09375 -6.4375 C 3.269531 -6.851562 3.507812 -7.160156 3.8125 -7.359375 C 4.113281 -7.554688 4.476562 -7.65625 4.90625 -7.65625 C 5.332031 -7.65625 5.660156 -7.582031 5.890625 -7.4375 L 5.5625 -5.796875 L 5.421875 -5.765625 C 5.296875 -5.816406 5.175781 -5.851562 5.0625 -5.875 C 4.945312 -5.894531 4.804688 -5.90625 4.640625 -5.90625 C 4.109375 -5.90625 3.703125 -5.71875 3.421875 -5.34375 C 3.140625 -4.976562 3 -4.378906 3 -3.546875 L 3 0 Z M 1.09375 0 "/></g></g><g transform="translate(17.186675, 16.296896)"><g><path d="M 3.46875 0.140625 C 2.613281 0.140625 1.984375 -0.0859375 1.578125 -0.546875 C 1.179688 -1.015625 0.984375 -1.6875 0.984375 -2.5625 L 0.984375 -7.59375 L 2.890625 -7.59375 L 2.890625 -2.796875 C 2.890625 -2.335938 2.988281 -2 3.1875 -1.78125 C 3.382812 -1.570312 3.691406 -1.46875 4.109375 -1.46875 C 4.640625 -1.46875 5.050781 -1.640625 5.34375 -1.984375 C 5.632812 -2.328125 5.78125 -2.875 5.78125 -3.625 L 5.78125 -7.59375 L 7.6875 -7.59375 L 7.6875 0 L 5.859375 0 L 5.859375 -1.109375 L 5.71875 -1.15625 C 5.46875 -0.71875 5.164062 -0.390625 4.8125 -0.171875 C 4.46875 0.0351562 4.019531 0.140625 3.46875 0.140625 Z M 3.46875 0.140625 "/></g></g><g transform="translate(25.970396, 16.296896)"><g><path d="M 1.09375 0 L 1.09375 -7.59375 L 2.921875 -7.59375 L 2.921875 -6.578125 L 3.0625 -6.546875 C 3.3125 -6.953125 3.601562 -7.25 3.9375 -7.4375 C 4.269531 -7.632812 4.695312 -7.734375 5.21875 -7.734375 C 5.789062 -7.734375 6.25 -7.617188 6.59375 -7.390625 C 6.945312 -7.160156 7.203125 -6.832031 7.359375 -6.40625 L 7.515625 -6.40625 C 7.742188 -6.851562 8.039062 -7.1875 8.40625 -7.40625 C 8.78125 -7.625 9.242188 -7.734375 9.796875 -7.734375 C 11.367188 -7.734375 12.15625 -6.859375 12.15625 -5.109375 L 12.15625 0 L 10.25 0 L 10.25 -4.859375 C 10.25 -5.304688 10.160156 -5.628906 9.984375 -5.828125 C 9.804688 -6.023438 9.523438 -6.125 9.140625 -6.125 C 8.097656 -6.125 7.578125 -5.425781 7.578125 -4.03125 L 7.578125 0 L 5.671875 0 L 5.671875 -4.859375 C 5.671875 -5.304688 5.582031 -5.628906 5.40625 -5.828125 C 5.226562 -6.023438 4.945312 -6.125 4.5625 -6.125 C 4.070312 -6.125 3.6875 -5.957031 3.40625 -5.625 C 3.132812 -5.300781 3 -4.78125 3 -4.0625 L 3 0 Z M 1.09375 0 "/></g></g><g transform="translate(39.104676, 16.296896)"><g><path d="M 2.953125 0.140625 C 2.472656 0.140625 2.050781 0.0507812 1.6875 -0.125 C 1.332031 -0.300781 1.054688 -0.5625 0.859375 -0.90625 C 0.671875 -1.257812 0.578125 -1.675781 0.578125 -2.15625 C 0.578125 -2.601562 0.671875 -2.976562 0.859375 -3.28125 C 1.054688 -3.59375 1.359375 -3.84375 1.765625 -4.03125 C 2.171875 -4.226562 2.695312 -4.382812 3.34375 -4.5 C 3.800781 -4.570312 4.144531 -4.648438 4.375 -4.734375 C 4.613281 -4.816406 4.773438 -4.914062 4.859375 -5.03125 C 4.941406 -5.144531 4.984375 -5.285156 4.984375 -5.453125 C 4.984375 -5.691406 4.894531 -5.875 4.71875 -6 C 4.550781 -6.132812 4.269531 -6.203125 3.875 -6.203125 C 3.457031 -6.203125 3.054688 -6.109375 2.671875 -5.921875 C 2.296875 -5.734375 1.96875 -5.484375 1.6875 -5.171875 L 1.546875 -5.171875 L 0.75 -6.375 C 1.132812 -6.800781 1.601562 -7.132812 2.15625 -7.375 C 2.71875 -7.613281 3.328125 -7.734375 3.984375 -7.734375 C 4.984375 -7.734375 5.707031 -7.519531 6.15625 -7.09375 C 6.601562 -6.664062 6.828125 -6.0625 6.828125 -5.28125 L 6.828125 -1.984375 C 6.828125 -1.640625 6.976562 -1.46875 7.28125 -1.46875 C 7.394531 -1.46875 7.507812 -1.488281 7.625 -1.53125 L 7.71875 -1.5 L 7.859375 -0.171875 C 7.742188 -0.109375 7.59375 -0.0507812 7.40625 0 C 7.21875 0.0390625 7.015625 0.0625 6.796875 0.0625 C 6.335938 0.0625 5.976562 -0.0234375 5.71875 -0.203125 C 5.46875 -0.378906 5.289062 -0.65625 5.1875 -1.03125 L 5.03125 -1.046875 C 4.664062 -0.253906 3.972656 0.140625 2.953125 0.140625 Z M 3.5625 -1.28125 C 4 -1.28125 4.347656 -1.425781 4.609375 -1.71875 C 4.878906 -2.019531 5.015625 -2.429688 5.015625 -2.953125 L 5.015625 -3.734375 L 4.890625 -3.75 C 4.773438 -3.664062 4.625 -3.59375 4.4375 -3.53125 C 4.25 -3.46875 3.984375 -3.40625 3.640625 -3.34375 C 3.222656 -3.269531 2.921875 -3.148438 2.734375 -2.984375 C 2.554688 -2.816406 2.46875 -2.582031 2.46875 -2.28125 C 2.46875 -1.957031 2.5625 -1.707031 2.75 -1.53125 C 2.945312 -1.363281 3.21875 -1.28125 3.5625 -1.28125 Z M 3.5625 -1.28125 "/></g></g><g transform="translate(47.110529, 16.296896)"><g/></g><g transform="translate(50.435401, 16.296896)"><g><path d="M 3.296875 -4.421875 L 3.296875 -1.671875 L 8.09375 -1.671875 L 8.09375 0 L 1.3125 0 L 1.3125 -10.0625 L 7.984375 -10.0625 L 7.984375 -8.390625 L 3.296875 -8.390625 L 3.296875 -6.046875 L 7.390625 -6.046875 L 7.390625 -4.421875 Z M 3.296875 -4.421875 "/></g></g><g transform="translate(59.088331, 16.296896)"><g><path d="M 5.21875 0 L 2.953125 0 L 0.140625 -7.59375 L 2.140625 -7.59375 L 4.03125 -2.1875 L 4.1875 -2.1875 L 6.078125 -7.59375 L 8.03125 -7.59375 Z M 5.21875 0 "/></g></g><g transform="translate(67.252511, 16.296896)"><g><path d="M 7.5 -3.359375 L 2.625 -3.359375 C 2.675781 -2.703125 2.863281 -2.222656 3.1875 -1.921875 C 3.507812 -1.617188 3.945312 -1.46875 4.5 -1.46875 C 4.9375 -1.46875 5.289062 -1.550781 5.5625 -1.71875 C 5.832031 -1.882812 6.050781 -2.128906 6.21875 -2.453125 L 6.359375 -2.453125 L 7.625 -1.640625 C 7.375 -1.109375 7 -0.675781 6.5 -0.34375 C 6 -0.0195312 5.332031 0.140625 4.5 0.140625 C 3.71875 0.140625 3.039062 -0.00390625 2.46875 -0.296875 C 1.894531 -0.597656 1.453125 -1.039062 1.140625 -1.625 C 0.835938 -2.21875 0.6875 -2.941406 0.6875 -3.796875 C 0.6875 -4.648438 0.847656 -5.375 1.171875 -5.96875 C 1.492188 -6.5625 1.929688 -7.003906 2.484375 -7.296875 C 3.046875 -7.585938 3.671875 -7.734375 4.359375 -7.734375 C 5.429688 -7.734375 6.253906 -7.445312 6.828125 -6.875 C 7.398438 -6.3125 7.6875 -5.476562 7.6875 -4.375 C 7.6875 -3.976562 7.671875 -3.671875 7.640625 -3.453125 Z M 5.859375 -4.59375 C 5.835938 -5.175781 5.703125 -5.597656 5.453125 -5.859375 C 5.203125 -6.117188 4.835938 -6.25 4.359375 -6.25 C 3.398438 -6.25 2.832031 -5.695312 2.65625 -4.59375 Z M 5.859375 -4.59375 "/></g></g><g transform="translate(75.50618, 16.296896)"><g><path d="M 1.09375 0 L 1.09375 -7.59375 L 2.921875 -7.59375 L 2.921875 -6.46875 L 3.0625 -6.4375 C 3.539062 -7.300781 4.3125 -7.734375 5.375 -7.734375 C 6.25 -7.734375 6.890625 -7.492188 7.296875 -7.015625 C 7.703125 -6.535156 7.90625 -5.84375 7.90625 -4.9375 L 7.90625 0 L 6 0 L 6 -4.703125 C 6 -5.203125 5.898438 -5.5625 5.703125 -5.78125 C 5.503906 -6.007812 5.179688 -6.125 4.734375 -6.125 C 4.191406 -6.125 3.765625 -5.945312 3.453125 -5.59375 C 3.148438 -5.238281 3 -4.679688 3 -3.921875 L 3 0 Z M 1.09375 0 "/></g></g><g transform="translate(84.400043, 16.296896)"><g><path d="M 5.234375 -1.8125 L 5.734375 -0.40625 C 5.523438 -0.226562 5.265625 -0.09375 4.953125 0 C 4.640625 0.09375 4.285156 0.140625 3.890625 0.140625 C 3.066406 0.140625 2.441406 -0.0820312 2.015625 -0.53125 C 1.597656 -0.976562 1.390625 -1.628906 1.390625 -2.484375 L 1.390625 -6.078125 L 0.234375 -6.078125 L 0.234375 -7.59375 L 1.390625 -7.59375 L 1.390625 -9.078125 L 3.296875 -9.390625 L 3.296875 -7.59375 L 5.4375 -7.59375 L 5.4375 -6.078125 L 3.296875 -6.078125 L 3.296875 -2.609375 C 3.296875 -2.234375 3.367188 -1.957031 3.515625 -1.78125 C 3.671875 -1.613281 3.898438 -1.53125 4.203125 -1.53125 C 4.546875 -1.53125 4.84375 -1.625 5.09375 -1.8125 Z M 5.234375 -1.8125 "/></g></g><g transform="translate(90.299455, 16.296896)"><g><path d="M 3.546875 0.140625 C 3.023438 0.140625 2.550781 0.0820312 2.125 -0.03125 C 1.695312 -0.15625 1.328125 -0.320312 1.015625 -0.53125 C 0.710938 -0.75 0.488281 -0.992188 0.34375 -1.265625 L 1.40625 -2.421875 L 1.546875 -2.421875 C 1.796875 -2.078125 2.09375 -1.816406 2.4375 -1.640625 C 2.78125 -1.472656 3.15625 -1.390625 3.5625 -1.390625 C 3.9375 -1.390625 4.21875 -1.457031 4.40625 -1.59375 C 4.59375 -1.726562 4.6875 -1.921875 4.6875 -2.171875 C 4.6875 -2.359375 4.617188 -2.515625 4.484375 -2.640625 C 4.347656 -2.773438 4.128906 -2.878906 3.828125 -2.953125 L 2.828125 -3.203125 C 2.066406 -3.378906 1.515625 -3.648438 1.171875 -4.015625 C 0.828125 -4.390625 0.65625 -4.859375 0.65625 -5.421875 C 0.65625 -5.898438 0.773438 -6.3125 1.015625 -6.65625 C 1.253906 -7.007812 1.59375 -7.273438 2.03125 -7.453125 C 2.46875 -7.640625 2.976562 -7.734375 3.5625 -7.734375 C 4.25 -7.734375 4.816406 -7.632812 5.265625 -7.4375 C 5.710938 -7.238281 6.0625 -6.972656 6.3125 -6.640625 L 5.296875 -5.546875 L 5.15625 -5.546875 C 4.945312 -5.785156 4.707031 -5.957031 4.4375 -6.0625 C 4.175781 -6.175781 3.882812 -6.234375 3.5625 -6.234375 C 2.8125 -6.234375 2.4375 -6 2.4375 -5.53125 C 2.4375 -5.332031 2.503906 -5.171875 2.640625 -5.046875 C 2.785156 -4.921875 3.035156 -4.820312 3.390625 -4.75 L 4.328125 -4.546875 C 5.097656 -4.378906 5.660156 -4.113281 6.015625 -3.75 C 6.367188 -3.382812 6.546875 -2.894531 6.546875 -2.28125 C 6.546875 -1.800781 6.425781 -1.375 6.1875 -1 C 5.945312 -0.632812 5.601562 -0.351562 5.15625 -0.15625 C 4.707031 0.0390625 4.171875 0.140625 3.546875 0.140625 Z M 3.546875 0.140625 "/></g></g><g transform="translate(97.300273, 16.296896)"><g/></g><g transform="translate(100.625146, 16.296896)"><g><path d="M 1.3125 0 L 1.3125 -10.0625 L 3.296875 -10.0625 L 3.296875 -5.953125 L 3.515625 -5.953125 L 6.875 -10.0625 L 8.90625 -10.0625 L 8.90625 -9.890625 L 5.203125 -5.3125 L 9.296875 -0.171875 L 9.296875 0 L 7.046875 0 L 3.515625 -4.34375 L 3.296875 -4.34375 L 3.296875 0 Z M 1.3125 0 "/></g></g><g transform="translate(109.925152, 16.296896)"><g><path d="M 3.46875 0.140625 C 2.613281 0.140625 1.984375 -0.0859375 1.578125 -0.546875 C 1.179688 -1.015625 0.984375 -1.6875 0.984375 -2.5625 L 0.984375 -7.59375 L 2.890625 -7.59375 L 2.890625 -2.796875 C 2.890625 -2.335938 2.988281 -2 3.1875 -1.78125 C 3.382812 -1.570312 3.691406 -1.46875 4.109375 -1.46875 C 4.640625 -1.46875 5.050781 -1.640625 5.34375 -1.984375 C 5.632812 -2.328125 5.78125 -2.875 5.78125 -3.625 L 5.78125 -7.59375 L 7.6875 -7.59375 L 7.6875 0 L 5.859375 0 L 5.859375 -1.109375 L 5.71875 -1.15625 C 5.46875 -0.71875 5.164062 -0.390625 4.8125 -0.171875 C 4.46875 0.0351562 4.019531 0.140625 3.46875 0.140625 Z M 3.46875 0.140625 "/></g></g><g transform="translate(118.708874, 16.296896)"><g><path d="M 4.078125 0 L 2.078125 0 L 0.28125 -7.59375 L 2.046875 -7.59375 L 3.15625 -2.453125 L 3.296875 -2.453125 L 4.75 -7.59375 L 6.40625 -7.59375 L 7.890625 -2.453125 L 8.03125 -2.453125 L 9.109375 -7.59375 L 10.828125 -7.59375 L 9.046875 0 L 7.046875 0 L 5.609375 -5.171875 L 5.46875 -5.171875 Z M 4.078125 0 "/></g></g><g transform="translate(129.812434, 16.296896)"><g><path d="M 2.953125 0.140625 C 2.472656 0.140625 2.050781 0.0507812 1.6875 -0.125 C 1.332031 -0.300781 1.054688 -0.5625 0.859375 -0.90625 C 0.671875 -1.257812 0.578125 -1.675781 0.578125 -2.15625 C 0.578125 -2.601562 0.671875 -2.976562 0.859375 -3.28125 C 1.054688 -3.59375 1.359375 -3.84375 1.765625 -4.03125 C 2.171875 -4.226562 2.695312 -4.382812 3.34375 -4.5 C 3.800781 -4.570312 4.144531 -4.648438 4.375 -4.734375 C 4.613281 -4.816406 4.773438 -4.914062 4.859375 -5.03125 C 4.941406 -5.144531 4.984375 -5.285156 4.984375 -5.453125 C 4.984375 -5.691406 4.894531 -5.875 4.71875 -6 C 4.550781 -6.132812 4.269531 -6.203125 3.875 -6.203125 C 3.457031 -6.203125 3.054688 -6.109375 2.671875 -5.921875 C 2.296875 -5.734375 1.96875 -5.484375 1.6875 -5.171875 L 1.546875 -5.171875 L 0.75 -6.375 C 1.132812 -6.800781 1.601562 -7.132812 2.15625 -7.375 C 2.71875 -7.613281 3.328125 -7.734375 3.984375 -7.734375 C 4.984375 -7.734375 5.707031 -7.519531 6.15625 -7.09375 C 6.601562 -6.664062 6.828125 -6.0625 6.828125 -5.28125 L 6.828125 -1.984375 C 6.828125 -1.640625 6.976562 -1.46875 7.28125 -1.46875 C 7.394531 -1.46875 7.507812 -1.488281 7.625 -1.53125 L 7.71875 -1.5 L 7.859375 -0.171875 C 7.742188 -0.109375 7.59375 -0.0507812 7.40625 0 C 7.21875 0.0390625 7.015625 0.0625 6.796875 0.0625 C 6.335938 0.0625 5.976562 -0.0234375 5.71875 -0.203125 C 5.46875 -0.378906 5.289062 -0.65625 5.1875 -1.03125 L 5.03125 -1.046875 C 4.664062 -0.253906 3.972656 0.140625 2.953125 0.140625 Z M 3.5625 -1.28125 C 4 -1.28125 4.347656 -1.425781 4.609375 -1.71875 C 4.878906 -2.019531 5.015625 -2.429688 5.015625 -2.953125 L 5.015625 -3.734375 L 4.890625 -3.75 C 4.773438 -3.664062 4.625 -3.59375 4.4375 -3.53125 C 4.25 -3.46875 3.984375 -3.40625 3.640625 -3.34375 C 3.222656 -3.269531 2.921875 -3.148438 2.734375 -2.984375 C 2.554688 -2.816406 2.46875 -2.582031 2.46875 -2.28125 C 2.46875 -1.957031 2.5625 -1.707031 2.75 -1.53125 C 2.945312 -1.363281 3.21875 -1.28125 3.5625 -1.28125 Z M 3.5625 -1.28125 "/></g></g><g transform="translate(137.818287, 16.296896)"><g><path d="M 2.046875 -8.5 C 1.703125 -8.5 1.421875 -8.601562 1.203125 -8.8125 C 0.984375 -9.019531 0.875 -9.289062 0.875 -9.625 C 0.875 -9.945312 0.984375 -10.210938 1.203125 -10.421875 C 1.421875 -10.628906 1.703125 -10.734375 2.046875 -10.734375 C 2.273438 -10.734375 2.476562 -10.6875 2.65625 -10.59375 C 2.832031 -10.5 2.96875 -10.363281 3.0625 -10.1875 C 3.164062 -10.019531 3.21875 -9.832031 3.21875 -9.625 C 3.21875 -9.40625 3.164062 -9.207031 3.0625 -9.03125 C 2.96875 -8.863281 2.832031 -8.734375 2.65625 -8.640625 C 2.476562 -8.546875 2.273438 -8.5 2.046875 -8.5 Z M 1.09375 0 L 1.09375 -7.59375 L 3 -7.59375 L 3 0 Z M 1.09375 0 "/></g></g><g transform="translate(141.907261, 16.296896)"><g><path d="M 5.234375 -1.8125 L 5.734375 -0.40625 C 5.523438 -0.226562 5.265625 -0.09375 4.953125 0 C 4.640625 0.09375 4.285156 0.140625 3.890625 0.140625 C 3.066406 0.140625 2.441406 -0.0820312 2.015625 -0.53125 C 1.597656 -0.976562 1.390625 -1.628906 1.390625 -2.484375 L 1.390625 -6.078125 L 0.234375 -6.078125 L 0.234375 -7.59375 L 1.390625 -7.59375 L 1.390625 -9.078125 L 3.296875 -9.390625 L 3.296875 -7.59375 L 5.4375 -7.59375 L 5.4375 -6.078125 L 3.296875 -6.078125 L 3.296875 -2.609375 C 3.296875 -2.234375 3.367188 -1.957031 3.515625 -1.78125 C 3.671875 -1.613281 3.898438 -1.53125 4.203125 -1.53125 C 4.546875 -1.53125 4.84375 -1.625 5.09375 -1.8125 Z M 5.234375 -1.8125 "/></g></g></g><g fill="#ffffff" fill-opacity="1"><g transform="translate(147.818145, 16.296896)"><g/></g></g></g></g></svg>