<svg fill="#0d141a" viewBox="0 0 160.195 16.905" height="100%" width="100%" xmlns="http://www.w3.org/2000/svg"><path preserveAspectRatio="none" d="M15.64 8.44L15.64 8.44Q15.64 10.35 15.17 11.90Q14.70 13.46 13.74 14.58Q12.79 15.71 11.30 16.31Q9.82 16.91 7.82 16.91L7.82 16.91Q5.82 16.91 4.34 16.30Q2.85 15.69 1.90 14.57Q0.94 13.46 0.47 11.89Q0 10.33 0 8.42L0 8.42Q0 5.87 0.84 3.98Q1.68 2.09 3.42 1.05Q5.15 0 7.84 0L7.84 0Q10.51 0 12.24 1.05Q13.96 2.09 14.80 3.99Q15.64 5.89 15.64 8.44ZM3.66 8.44L3.66 8.44Q3.66 10.17 4.09 11.41Q4.53 12.65 5.45 13.32Q6.37 13.98 7.82 13.98L7.82 13.98Q9.31 13.98 10.22 13.32Q11.13 12.65 11.56 11.41Q11.98 10.17 11.98 8.44L11.98 8.44Q11.98 5.84 11.02 4.37Q10.05 2.90 7.84 2.90L7.84 2.90Q6.37 2.90 5.45 3.57Q4.53 4.23 4.09 5.47Q3.66 6.72 3.66 8.44ZM25.78 3.89L25.78 3.89Q26.04 3.89 26.38 3.91Q26.73 3.93 26.93 3.98L26.93 3.98L26.68 7.20Q26.52 7.15 26.21 7.12Q25.90 7.08 25.67 7.08L25.67 7.08Q25.00 7.08 24.38 7.26Q23.76 7.43 23.26 7.80Q22.77 8.17 22.48 8.77Q22.20 9.38 22.20 10.28L22.20 10.28L22.20 16.68L18.77 16.68L18.77 4.12L21.37 4.12L21.87 6.23L22.03 6.23Q22.40 5.59 22.95 5.06Q23.51 4.53 24.23 4.21Q24.95 3.89 25.78 3.89ZM37.31 4.12L40.73 4.12L40.73 16.68L38.11 16.68L37.65 15.07L37.47 15.07Q37.08 15.71 36.47 16.11Q35.86 16.51 35.12 16.71Q34.38 16.91 33.60 16.91L33.60 16.91Q32.27 16.91 31.26 16.42Q30.25 15.94 29.69 14.93Q29.14 13.92 29.14 12.30L29.14 12.30L29.14 4.12L32.57 4.12L32.57 11.45Q32.57 12.79 33.05 13.48Q33.53 14.17 34.59 14.17L34.59 14.17Q35.65 14.17 36.24 13.69Q36.82 13.20 37.06 12.28Q37.31 11.36 37.31 10.03L37.31 10.03L37.31 4.12ZM59.06 3.89L59.06 3.89Q61.20 3.89 62.30 4.98Q63.39 6.07 63.39 8.49L63.39 8.49L63.39 16.68L59.96 16.68L59.96 9.34Q59.96 7.98 59.50 7.30Q59.04 6.62 58.08 6.62L58.08 6.62Q56.72 6.62 56.14 7.59Q55.57 8.56 55.57 10.37L55.57 10.37L55.57 16.68L52.14 16.68L52.14 9.34Q52.14 8.44 51.93 7.84Q51.73 7.25 51.31 6.93Q50.90 6.62 50.26 6.62L50.26 6.62Q49.31 6.62 48.76 7.11Q48.21 7.59 47.98 8.51Q47.75 9.43 47.75 10.76L47.75 10.76L47.75 16.68L44.32 16.68L44.32 4.12L46.94 4.12L47.40 5.73L47.59 5.73Q47.98 5.08 48.55 4.68Q49.13 4.28 49.83 4.08Q50.53 3.89 51.24 3.89L51.24 3.89Q52.62 3.89 53.59 4.34Q54.56 4.78 55.06 5.73L55.06 5.73L55.36 5.73Q55.94 4.76 56.96 4.32Q57.98 3.89 59.06 3.89ZM72.06 3.86L72.06 3.86Q74.59 3.86 75.93 4.96Q77.28 6.05 77.28 8.30L77.28 8.30L77.28 16.68L74.89 16.68L74.22 14.97L74.13 14.97Q73.60 15.64 73.04 16.08Q72.47 16.51 71.75 16.71Q71.02 16.91 69.97 16.91L69.97 16.91Q68.86 16.91 67.98 16.48Q67.09 16.05 66.58 15.17Q66.08 14.28 66.08 12.93L66.08 12.93Q66.08 10.93 67.48 9.97Q68.89 9.02 71.69 8.92L71.69 8.92L73.88 8.86L73.88 8.30Q73.88 7.31 73.36 6.85Q72.84 6.39 71.92 6.39L71.92 6.39Q71.00 6.39 70.13 6.66Q69.25 6.92 68.38 7.31L68.38 7.31L67.25 4.99Q68.26 4.46 69.49 4.16Q70.72 3.86 72.06 3.86ZM73.88 10.86L72.54 10.90Q70.89 10.95 70.24 11.50Q69.60 12.05 69.60 12.95L69.60 12.95Q69.60 13.73 70.06 14.06Q70.52 14.40 71.25 14.40L71.25 14.40Q72.36 14.40 73.12 13.74Q73.88 13.09 73.88 11.89L73.88 11.89L73.88 10.86ZM96.51 13.80L96.51 16.68L87.05 16.68L87.05 0.25L96.51 0.25L96.51 3.11L90.53 3.11L90.53 6.72L96.09 6.72L96.09 9.57L90.53 9.57L90.53 13.80L96.51 13.80ZM106.17 16.68L102.65 16.68L97.86 4.12L101.45 4.12L103.87 11.27Q104.01 11.68 104.11 12.14Q104.21 12.60 104.27 13.04Q104.33 13.48 104.35 13.85L104.35 13.85L104.44 13.85Q104.47 13.46 104.53 13.02Q104.60 12.58 104.71 12.13Q104.81 11.68 104.95 11.27L104.95 11.27L107.36 4.12L110.95 4.12L106.17 16.68ZM117.92 3.89L117.92 3.89Q119.67 3.89 120.92 4.55Q122.18 5.22 122.87 6.49Q123.56 7.75 123.56 9.59L123.56 9.59L123.56 11.25L115.46 11.25Q115.51 12.70 116.32 13.52Q117.14 14.35 118.59 14.35L118.59 14.35Q119.81 14.35 120.80 14.11Q121.78 13.87 122.84 13.36L122.84 13.36L122.84 16.01Q121.92 16.47 120.90 16.69Q119.88 16.91 118.43 16.91L118.43 16.91Q116.54 16.91 115.09 16.20Q113.64 15.50 112.81 14.08Q111.99 12.65 111.99 10.49L111.99 10.49Q111.99 8.28 112.73 6.82Q113.48 5.36 114.82 4.62Q116.15 3.89 117.92 3.89ZM117.94 6.33L117.94 6.33Q116.95 6.33 116.30 6.97Q115.64 7.61 115.53 8.97L115.53 8.97L120.34 8.97Q120.34 8.21 120.07 7.61Q119.81 7.02 119.28 6.67Q118.75 6.33 117.94 6.33ZM133.47 3.89L133.47 3.89Q135.49 3.89 136.71 4.98Q137.93 6.07 137.93 8.49L137.93 8.49L137.93 16.68L134.50 16.68L134.50 9.34Q134.50 7.98 134.02 7.30Q133.54 6.62 132.48 6.62L132.48 6.62Q130.92 6.62 130.34 7.69Q129.77 8.76 129.77 10.76L129.77 10.76L129.77 16.68L126.34 16.68L126.34 4.12L128.96 4.12L129.42 5.73L129.60 5.73Q130.02 5.08 130.62 4.68Q131.22 4.28 131.95 4.08Q132.69 3.89 133.47 3.89ZM146.74 14.17L146.74 14.17Q147.31 14.17 147.84 14.05Q148.37 13.94 148.90 13.78L148.90 13.78L148.90 16.33Q148.35 16.56 147.53 16.73Q146.72 16.91 145.75 16.91L145.75 16.91Q144.62 16.91 143.74 16.54Q142.85 16.17 142.34 15.26Q141.82 14.35 141.82 12.74L141.82 12.74L141.82 6.69L140.19 6.69L140.19 5.24L142.07 4.09L143.06 1.45L145.25 1.45L145.25 4.12L148.76 4.12L148.76 6.69L145.25 6.69L145.25 12.74Q145.25 13.46 145.66 13.81Q146.07 14.17 146.74 14.17ZM160.19 12.95L160.19 12.95Q160.19 14.21 159.60 15.10Q159.00 15.99 157.80 16.45Q156.61 16.91 154.84 16.91L154.84 16.91Q153.53 16.91 152.58 16.73Q151.64 16.56 150.70 16.17L150.70 16.17L150.70 13.34Q151.71 13.80 152.88 14.10Q154.05 14.40 154.95 14.40L154.95 14.40Q155.96 14.40 156.39 14.10Q156.81 13.80 156.81 13.32L156.81 13.32Q156.81 13.00 156.64 12.74Q156.47 12.49 155.89 12.17Q155.32 11.85 154.10 11.34L154.10 11.34Q152.93 10.83 152.17 10.34Q151.41 9.84 151.04 9.14Q150.67 8.44 150.67 7.38L150.67 7.38Q150.67 5.64 152.03 4.76Q153.39 3.89 155.64 3.89L155.64 3.89Q156.81 3.89 157.87 4.12Q158.93 4.35 160.06 4.88L160.06 4.88L159.02 7.34Q158.10 6.95 157.27 6.68Q156.45 6.42 155.59 6.42L155.59 6.42Q154.84 6.42 154.46 6.62Q154.08 6.83 154.08 7.25L154.08 7.25Q154.08 7.54 154.27 7.79Q154.47 8.03 155.03 8.30Q155.59 8.58 156.70 9.04L156.70 9.04Q157.78 9.48 158.56 9.95Q159.34 10.42 159.77 11.12Q160.19 11.82 160.19 12.95Z"></path></svg>